<?xml version="1.0" standalone="no"?><!DOCTYPE svg PUBLIC "-//W3C//DTD SVG 1.1//EN" "http://www.w3.org/Graphics/SVG/1.1/DTD/svg11.dtd"><svg t="1597990283514" class="icon" viewBox="0 0 1024 1024" version="1.1" xmlns="http://www.w3.org/2000/svg" p-id="753" xmlns:xlink="http://www.w3.org/1999/xlink" width="200" height="200"><defs><style type="text/css"></style></defs><path d="M634.884669 253.780217c-5.30475 0-10.60438 2.047771-14.613915 6.133073l-203.420417 207.23438899c-12.096181 12.32246-18.744269 28.619643-18.71662401 45.88746901 0.026621 17.267826 6.723855 33.544531 18.85792001 45.830131l203.323148 205.864431c7.94637401 8.045691 20.911834 8.128626 28.958548 0.17918 8.046715-7.947398 8.12760199-20.912858 0.180204-28.959572L446.131409 530.084886c-9.312237-9.427936-9.335786-24.792359-0.053242-34.248964L649.496536 288.602557c7.922825-8.071288 7.802006-21.035724-0.269281-28.95752499a20.401939 20.401939 0 0 0-14.342586-5.86481501z" fill="#000" p-id="754"></path></svg>